<?xml version="1.0" encoding="UTF-8"?>
<svg viewBox="0 0 800 600" xmlns="http://www.w3.org/2000/svg">
  <!-- Definiciones de estilos -->
  <defs>
    <marker id="arrowhead" markerWidth="10" markerHeight="7" refX="9" refY="3.5" orient="auto">
      <polygon points="0 0, 10 3.5, 0 7" fill="#333" />
    </marker>
  </defs>
  
  <!-- Título principal -->
  <text x="400" y="30" font-size="24" font-weight="bold" text-anchor="middle">Flujo Detallado de Peticiones Backend</text>
  
  <!-- Cliente (Frontend) -->
  <rect x="50" y="70" width="200" height="70" rx="10" ry="10" fill="#e6f7ff" stroke="#69c0ff" stroke-width="2"/>
  <text x="150" y="110" font-size="16" font-weight="bold" text-anchor="middle">Cliente (Frontend Vue)</text>
  
  <!-- Servidor Express -->
  <rect x="50" y="180" width="700" height="380" rx="10" ry="10" fill="#f6ffed" stroke="#b7eb8f" stroke-width="2"/>
  <text x="400" y="210" font-size="20" font-weight="bold" text-anchor="middle">Servidor Express (Backend Node.js)</text>
  
  <!-- server.js -->
  <rect x="80" y="230" width="200" height="80" rx="5" ry="5" fill="#ffffff" stroke="#d9d9d9" stroke-width="1.5"/>
  <text x="180" y="265" font-size="16" font-weight="bold" text-anchor="middle">server.js</text>
  <text x="180" y="290" font-size="12" text-anchor="middle">Punto de entrada y gestión de rutas</text>
  
  <!-- routes/items.js -->
  <rect x="80" y="340" width="200" height="80" rx="5" ry="5" fill="#ffffff" stroke="#d9d9d9" stroke-width="1.5"/>
  <text x="180" y="375" font-size="16" font-weight="bold" text-anchor="middle">routes/items.js</text>
  <text x="180" y="400" font-size="12" text-anchor="middle">Definición de rutas de items</text>
  
  <!-- controllers/items.js -->
  <rect x="80" y="450" width="200" height="80" rx="5" ry="5" fill="#ffffff" stroke="#d9d9d9" stroke-width="1.5"/>
  <text x="180" y="485" font-size="16" font-weight="bold" text-anchor="middle">controllers/items.js</text>
  <text x="180" y="510" font-size="12" text-anchor="middle">Lógica de negocio para items</text>
  
  <!-- Middleware Sección -->
  <rect x="320" y="230" width="200" height="300" rx="5" ry="5" fill="#fffbe6" stroke="#ffd591" stroke-width="1.5"/>
  <text x="420" y="255" font-size="16" font-weight="bold" text-anchor="middle">Middleware</text>
  
  <!-- Middleware componentes -->
  <rect x="340" y="270" width="160" height="40" rx="5" ry="5" fill="#ffffff" stroke="#d9d9d9" stroke-width="1"/>
  <text x="420" y="295" font-size="12" text-anchor="middle">CORS, body-parser, etc.</text>
  
  <rect x="340" y="320" width="160" height="40" rx="5" ry="5" fill="#ffffff" stroke="#d9d9d9" stroke-width="1"/>
  <text x="420" y="345" font-size="12" text-anchor="middle">fileUpload (multer)</text>
  
  <rect x="340" y="370" width="160" height="40" rx="5" ry="5" fill="#ffffff" stroke="#d9d9d9" stroke-width="1"/>
  <text x="420" y="395" font-size="12" text-anchor="middle">protect (auth)</text>
  
  <rect x="340" y="420" width="160" height="40" rx="5" ry="5" fill="#ffffff" stroke="#d9d9d9" stroke-width="1"/>
  <text x="420" y="445" font-size="12" text-anchor="middle">advancedResults</text>
  
  <rect x="340" y="470" width="160" height="40" rx="5" ry="5" fill="#ffffff" stroke="#d9d9d9" stroke-width="1"/>
  <text x="420" y="495" font-size="12" text-anchor="middle">asyncHandler</text>
  
  <!-- Modelos y Base de Datos -->
  <rect x="560" y="230" width="160" height="160" rx="5" ry="5" fill="#f9f0ff" stroke="#d3adf7" stroke-width="1.5"/>
  <text x="640" y="255" font-size="16" font-weight="bold" text-anchor="middle">Modelos</text>
  
  <rect x="580" y="270" width="120" height="40" rx="5" ry="5" fill="#ffffff" stroke="#d9d9d9" stroke-width="1"/>
  <text x="640" y="295" font-size="12" text-anchor="middle">models/Item.js</text>
  
  <rect x="580" y="320" width="120" height="40" rx="5" ry="5" fill="#ffffff" stroke="#d9d9d9" stroke-width="1"/>
  <text x="640" y="345" font-size="12" text-anchor="middle">models/User.js</text>
  
  <!-- MongoDB -->
  <rect x="560" y="410" width="160" height="80" rx="5" ry="5" fill="#e6f7ff" stroke="#69c0ff" stroke-width="1.5"/>
  <text x="640" y="445" font-size="16" font-weight="bold" text-anchor="middle">MongoDB</text>
  <text x="640" y="470" font-size="12" text-anchor="middle">Base de datos</text>
  
  <!-- Cloudinary -->
  <rect x="560" y="510" width="160" height="40" rx="5" ry="5" fill="#fff2f0" stroke="#ffccc7" stroke-width="1.5"/>
  <text x="640" y="535" font-size="12" text-anchor="middle">Cloudinary (Almacenamiento)</text>
  
  <!-- Líneas y flechas para el flujo -->
  <!-- Cliente a Servidor -->
  <line x1="150" y1="140" x2="150" y2="230" stroke="#333" stroke-width="2" marker-end="url(#arrowhead)"/>
  <text x="170" y="180" font-size="12" text-anchor="start">1. Petición HTTP</text>
  
  <!-- Server a Routes -->
  <line x1="180" y1="310" x2="180" y2="340" stroke="#333" stroke-width="2" marker-end="url(#arrowhead)"/>
  <text x="190" y="325" font-size="12" text-anchor="start">2. Enrutamiento</text>
  
  <!-- Routes a Controllers -->
  <line x1="180" y1="420" x2="180" y2="450" stroke="#333" stroke-width="2" marker-end="url(#arrowhead)"/>
  <text x="190" y="435" font-size="12" text-anchor="start">4. Delegación a controlador</text>
  
  <!-- Routes a Middleware -->
  <line x1="280" y1="380" x2="340" y2="380" stroke="#333" stroke-width="2" marker-end="url(#arrowhead)"/>
  <text x="290" y="365" font-size="12" text-anchor="start">3. Middleware</text>
  
  <!-- Controllers a MongoDB -->
  <line x1="280" y1="490" x2="560" y2="450" stroke="#333" stroke-width="2" marker-end="url(#arrowhead)"/>
  <text x="370" y="530" font-size="12" text-anchor="middle">5. Operaciones CRUD</text>
  
  <!-- Controllers a Cloudinary -->
  <line x1="280" y1="520" x2="560" y2="530" stroke="#333" stroke-width="2" marker-end="url(#arrowhead)"/>
  <text x="370" y="550" font-size="12" text-anchor="middle">6. Upload/Delete imágenes</text>
  
  <!-- Server a Cliente (respuesta) -->
  <line x1="130" y1="230" x2="130" y2="140" stroke="#333" stroke-width="2" marker-end="url(#arrowhead)"/>
  <text x="90" y="180" font-size="12" text-anchor="end">7. Respuesta JSON</text>
</svg>